<svg xmlns="http://www.w3.org/2000/svg" width="258" height="19" fill="none" viewBox="0 0 258 19">
    <path fill="#F591AF"
          d="M255.53 5.07a1744.9 1744.9 0 0 0-63.1-3.62C173.15.71 155.78.33 140.77.12 110.7-.2 89.92.3 81.77.46a2152.7 2152.7 0 0 0-52.43 2.16C14.69 3.4 4.14 4.16 1.7 4.28.32 4.32 0 5.08 0 5.53c0 1.45.16 3.9 1.26 4.2.36.08 4.9-.13 11.52-.54 3.33-.21 7.14-.42 11.24-.67 4.1-.2 8.44-.5 12.83-.7A1233.88 1233.88 0 0 1 77.26 6.1c3-.08 7.3-.12 12.7-.25 7.63-.12 17.45-.25 28.81-.25-6.94.25-10.95.5-11.44.5-2.35.17-21.83 1.29-41.1 3-19.28 1.66-38.4 3.9-40.18 4.2l-4.38.57c-1.9.25-4.18.55-6.45.88-4.55.66-9.21 1.41-11.4 2-2.2.53-2.52 2.24.08 2.24 1.54 0 8.35-.7 11.64-1.08.12 0 2.4-.3 6.45-.7 2.03-.22 4.5-.47 7.35-.76 1.42-.16 2.96-.29 4.62-.46 1.63-.16 3.37-.29 5.2-.45 14.57-1.37 34.98-2.91 58.55-4.04 23.59-1.1 50.29-1.73 77.47-1.86 27.19-.12 54.78.34 80.14.96a2.69 2.69 0 0 0 2.76-2.7c-.04-1.5-1.13-2.75-2.55-2.83Z"/>
</svg>
