<svg xmlns="http://www.w3.org/2000/svg" width="115" height="101" fill="none" viewBox="0 0 115 101">
    <path fill="#F591AF"
          d="M114.4.7c.7 1 .4.7.6 1.2V3l-.2 1-.2.8-1.3 5.7-1.7 7a403 403 0 0 0-4 16c0 .2-.6.2-1 0-1.1-.2-3-.6-3.3-.9-.2-.2.7-3.7 1.6-7.1l1.9-7.1v-.5l.4-1.3.3-1.4-.1.2-.7 1.4-.8 1.3a188 188 0 0 1-27 38.3 153.4 153.4 0 0 1-32.4 26.7A147.6 147.6 0 0 1 6.4 99.7l-2.4.6-2.7.7c-.3 0-.6-.4-.7-.8-.3-1.1-.8-3-.5-3.4 0-.2 1.3-.5 3.2-1l3.2-.9 3.6-1c5-1.3 9.8-3 10-3l1-.5 3-1.1.9-.4 1-.4 2.4-1 5.5-2.7A150.4 150.4 0 0 0 61.5 67a148 148 0 0 0 23-23.6l2-2.6 1-1.2.8-1.2 2.9-4 2.6-3.7c.4-.6 3.7-5.2 6.8-10l2.2-3.6a31.2 31.2 0 0 0 2-3.2l1.9-3.3c-3.7 2.8-7.6 5-11.3 6.9-5 2.5-9.6 4.2-12.4 5.2-1.2.4-2.4-.2-2.8-1.3-.3-.9 0-1.8.6-2.4 1-1 2-1.8 3-2.6l2.4-2 3.6-3 2-1.5.7-.4L95 7.9c.6-.4 1.4-1 2.3-1.4l2.5-1.4 2.6-1.4 1.3-.6 1.1-.5 1.8-.8.8-.3 2.2-.7 1.7-.4c.6-.5 2.4-.6 3 .3Zm-12 6.8a94.9 94.9 0 0 0-8.3 5.7l1.3-.7a78.6 78.6 0 0 0 11-7.3l-4 2.3Z"/>
</svg>
